<?xml version="1.0" encoding="utf-8"?>
<!-- Generator: Adobe Illustrator 16.0.0, SVG Export Plug-In . SVG Version: 6.00 Build 0)  -->
<!DOCTYPE svg PUBLIC "-//W3C//DTD SVG 1.1//EN" "http://www.w3.org/Graphics/SVG/1.1/DTD/svg11.dtd">
<svg version="1.1"
	 id="svg839" xmlns:dc="http://purl.org/dc/elements/1.1/" xmlns:cc="http://creativecommons.org/ns#" xmlns:rdf="http://www.w3.org/1999/02/22-rdf-syntax-ns#" xmlns:svg="http://www.w3.org/2000/svg" xmlns:sodipodi="http://sodipodi.sourceforge.net/DTD/sodipodi-0.dtd" xmlns:inkscape="http://www.inkscape.org/namespaces/inkscape" sodipodi:docname="Bacardi_2013.svg" inkscape:version="0.92.4 (5da689c313, 2019-01-14)"
	 xmlns="http://www.w3.org/2000/svg" xmlns:xlink="http://www.w3.org/1999/xlink" x="0px" y="0px" width="1000px"
	 height="278.785px" viewBox="0 521.285 1000 278.785" enable-background="new 0 521.285 1000 278.785" xml:space="preserve">
<sodipodi:namedview  fit-margin-left="0" fit-margin-top="0" pagecolor="#ffffff" bordercolor="#666666" borderopacity="1" objecttolerance="10" gridtolerance="10" guidetolerance="10" showgrid="false" inkscape:zoom="0.24748737" inkscape:cy="653.7825" inkscape:cx="546.30882" id="namedview841" fit-margin-bottom="0" fit-margin-right="0" inkscape:document-rotation="0" inkscape:pageopacity="0" inkscape:pageshadow="2" inkscape:window-width="1920" inkscape:window-height="1017" inkscape:window-y="-8" inkscape:window-maximized="1" inkscape:current-layer="svg839" inkscape:window-x="1912">
	</sodipodi:namedview>
<path id="path835" inkscape:connector-curvature="0" d="M995.324,521.285v0.064c-0.645,5.723-1.709,8.043-6.851,11.428
	c-7.415,4.545-24.969,9.576-36.43,14.057c-11.912,4.578-17.328,7.545-17.441,20.955l-0.211,24.971h4.707
	c-0.146-9.414,7.254-12.719,19.602-16.957c8.623-2.949,30.917-10.238,35.865-15.607c4.304-4.689,5.434-8.332,5.434-18.6v-20.309
	L995.324,521.285z M370.516,599.238c-18.474-0.09-37.138,5.492-51.544,16.41h-0.051c-23.969,18.697-32.334,50.711-32.027,79.951
	c-0.936,28.434,3.917,59.225,23.646,81.051c14.637,15.684,35.994,23.42,57.385,23.42c27.5,0,55.017-12.752,68.315-37.721
	c-11.349-8.037-22.708-16.031-34.077-23.984c-8.914,15.701-30.273,24.211-46.57,14.652c-15.926-10.863-18.52-31.82-19.535-49.551
	c0-18.053,1.241-38.766,14.652-52.436c12.911-13.83,38.124-9.865,46.409,7.125c13.331-6.609,26.949-12.801,39.297-21.119
	C424.109,611.617,397.516,599.369,370.516,599.238L370.516,599.238z M206.489,600.173c-25.146,65.348-48.823,131.34-73.019,197.074
	c15.346,0,30.707,0.146,46.101-0.191c1.821-6.77,3.692-13.479,5.579-20.184c14.878-0.451,29.771-0.678,44.649-0.145
	c5.384,4.836,5.223,13.701,8.06,20.246c16.216,0.469,32.447,0.242,48.663,0.242c-24.018-65.59-47.696-131.309-72.165-196.656v-0.051
	C212.406,600.398,208.455,600.253,206.489,600.173L206.489,600.173z M519.963,600.333l-7.833,0.289
	c-24.775,65.35-48.489,131.115-72.846,196.658h45.877c2.063-6.707,4.287-13.361,6.624-19.955c15.313,0.371,30.627,0,45.956,0.371
	c2.596,6.254,2.678,14.508,7.465,19.344c15.685,0.596,31.433,0,47.165,0.191c-23.985-65.701-47.358-131.646-72.424-196.883
	L519.963,600.333z M48.894,601.093c-16.34-0.047-32.952,1.498-48.894,0.387v195.768c20.021,0,40.09,0.113,60.126,0
	c18.925-0.531,39.363-4.416,53.484-18.035c15.136-15.217,17.247-39.188,12.089-59.063v-0.049
	c-3.804-13.637-15.507-22.697-27.935-28.129c33.013-14.975,29.015-66.475-1.612-81.725
	C81.299,602.777,65.233,601.138,48.894,601.093L48.894,601.093z M813.475,601.244c-14.939-0.055-29.967,0.824-44.757,0.381
	c0.226,65.09,0.339,130.178,0,195.268c21.148,0.5,42.313,0.422,63.461,0.148c24.099-0.371,48.536-11.479,61.867-32.063
	c17.618-26.838,17.878-60.771,14.605-91.559l-0.082,0.049c-3.353-29.176-21.697-58.303-50.874-67.008
	C843.261,602.285,828.413,601.298,813.475,601.244L813.475,601.244z M655.772,601.25c-15.051-0.049-30.22,0.939-45.09,0.359
	c0.15,65.154,0.15,130.328,0,195.525c15.99,0.178,32.03,0,48.068,0.113v-64.105c2.644,0.113,7.869,0.291,10.513,0.371
	c7.592,21.391,16.118,42.426,23.937,63.734h50.436c-10.042-25.564-19.939-51.162-30.337-76.598
	c40.702-25.791,33.096-98.23-13.135-113.545C685.761,602.382,670.823,601.298,655.772,601.25z M982.492,601.496
	c-16.023,0.111-32.06-0.113-48.065,0.113h-0.035c0.226,65.176,0.226,130.324,0,195.447c15.99,0.338,32.077,0.191,48.1,0.191
	L982.492,601.496z M45.103,641.826c8.672,0.758,19.777-2.207,25.983,5.609c7.785,8.479,4.997,25.645-6.996,28.691
	c-6.286,0.936-12.652,0.598-18.987,0.711V641.826z M659.025,643.324c9.671,0.822,21.439,0.373,27.774,9.221
	c6.929,11.1,6.287,25.324-1.612,35.754h0.031c-6.447,7.834-17.393,7.188-26.468,7.527
	C658.75,678.32,658.492,660.814,659.025,643.324L659.025,643.324z M820.697,643.474c14.474-0.104,29.889,6.217,34.694,20.965
	c6.964,21.424,6.625,45.508,1.096,67.236h0.017c-4.336,16.973-22.181,25.629-38.687,23.404c0-37.188-0.081-74.342,0-111.498
	C818.77,643.519,819.733,643.482,820.697,643.474L820.697,643.474z M209.004,698.857c4.143,14.121,7.721,28.416,11.041,42.795
	c-7.641,0-15.296,0-22.888,0.113C200.736,727.355,203.846,712.751,209.004,698.857z M514.047,698.951
	c5.916,13.67,8.286,28.502,11.671,42.928c-7.576-0.129-15.137-0.162-22.664-0.227C506.519,727.337,510.55,713.216,514.047,698.951z
	 M53.44,713.384c8.503,0,17.249,0.693,23.064,7.523c5.892,8.639,5.892,20.004,0,28.645h-0.082
	c-7.673,9.074-20.665,7.447-31.288,8.398v-44.539C47.798,713.46,50.605,713.382,53.44,713.384L53.44,713.384z M999.109,786.894
	c-0.021,0.014-0.044,0.025-0.066,0.041c0.009,0.023,0.017,0.045,0.025,0.068C999.082,786.966,999.095,786.931,999.109,786.894
	L999.109,786.894z"/>
</svg>
