<svg xmlns="http://www.w3.org/2000/svg" viewBox="0 0 139.73 124.94"><title>Dabur logo</title><path d="M490.89,569.55c-1.21-.59-.26-3.23,1.83-7,1.7-3.08,3.41-4.63,5-4.63a.86.86,0,0,1,.7.36,1.27,1.27,0,0,1,.37.87c0,.85-.45,2.57-2.62,5.94-1.91,3-4.3,4.95-5.3,4.47m25.64-3.32c-2.31,3.42-3.07,3.63-3.89,3.69a1.39,1.39,0,0,1-1.08-.34.92.92,0,0,1-.3-.77s.05-.45.09-.63a38.56,38.56,0,0,1,1.74-4.8,12.92,12.92,0,0,1,2.28-3.93c1.36-1.6,2.86-2.27,3.6-1.85,1.47.81-.69,6-2.46,8.63m8-12.17h0a4.7,4.7,0,0,0-3.67-1.13,7.23,7.23,0,0,0-4.49,1.41c2.23-5.55,5.76-13.15,5.8-13.23l.18-.37-.41,0a57.44,57.44,0,0,0-6.45,1.23l-.12,0-.32.86-9,23.35a6.57,6.57,0,0,1-2.62,2.55,4.84,4.84,0,0,1-1.94.72.3.3,0,0,1-.38-.36c.26-.72,1-2.7,1-2.7,2.18-6.08,3.53-9.74,4.13-11.2l.79-1.9h-5.92l-.14.26a4.58,4.58,0,0,0-2.42-.65c-1.31,0-3,.75-5.32,2.36a27.68,27.68,0,0,0-6.09,5.78,13.59,13.59,0,0,0-3.13,8.15,5.77,5.77,0,0,0,.85,3.17,3.48,3.48,0,0,0,3.13,1.62,10.48,10.48,0,0,0,6.48-2.44,2.76,2.76,0,0,0,1.14,1.51,5.62,5.62,0,0,0,2.51.92,8.64,8.64,0,0,0,3.8-.86,7.26,7.26,0,0,0,2.89-2.7,7,7,0,0,0,1.51,2.34,4.18,4.18,0,0,0,3.06,1.23c3.39,0,6.95-1.67,10.57-5,3.92-3.54,5.9-7.38,5.9-11.42a5.22,5.22,0,0,0-1.35-3.61" transform="translate(-442.14 -449.53)" style="fill:#004713"/><path d="M564,554.65h0a4.47,4.47,0,0,0-3.41-1.3,5.93,5.93,0,0,0-3.35,1.31l.38-1.05h-6.17l-4.75,14.16a10.81,10.81,0,0,1-1.86,1.55,3.37,3.37,0,0,1-2.8.49s-.45-.23-.35-.49l1.74-5.13c1.27-3.75,2.39-6.86,3.25-9l.75-1.88H541.2l-.34.89c-1.11,2.92-2,5.12-2.8,6.74a26,26,0,0,1-3.64,5.91c-1.1,1.22-2.08,2.2-3.32,2.2a1.27,1.27,0,0,1-.3,0,.33.33,0,0,1-.25-.39c.94-2.48,6-15.32,6-15.32h-6.38s-6.1,15.47-6.2,16.84a3.55,3.55,0,0,0,1.28,2.82,4,4,0,0,0,2.83,1.11c2,0,4.33-1.19,7-3.53l0,.06-.12.63c0,.6.33,1.45,1.9,2.16a7.09,7.09,0,0,0,2.84.69,6.92,6.92,0,0,0,4.34-1.3,6.28,6.28,0,0,0,1.52-1.41l-.91,2.71h6.15l.3-1c.75-2.53,1.49-4.72,2.21-6.51a34.32,34.32,0,0,1,3-6.18c1.16-1.74,1.79-2,2.34-2.21a3.85,3.85,0,0,1,1.21-.28,1.71,1.71,0,0,1,1.54.85c.21.44-.06,1.18-.3,1.8s-.39,1-.21,1.22a.43.43,0,0,0,.38.18,3.71,3.71,0,0,0,3-1.32,4.61,4.61,0,0,0-.21-6" transform="translate(-442.14 -449.53)" style="fill:#004713"/><path d="M475,540h0c-.06,0-6-3.63-11.82-3.95-6.85-.37-19,2.67-21,16.45l.46.09c1.61-6.14,7.4-11.94,13.78-13.81A17.06,17.06,0,0,1,468.52,540a18.09,18.09,0,0,1,9.2,13.43,12.46,12.46,0,0,1-5,11.44c-4,3.21-10.82,4.45-13.33,2.41-1.17-1-.84-2.47-.14-4.65L467,542.75l-.07-.1c-.15-.21-3.73-5.14-7.14-3.56-1.1.51-8.41,24.69-10.62,32.08l-.06.21.2.08c10.47,3.87,19.58,4,27.08.42a16.7,16.7,0,0,0,9.92-14.43c.35-7-3.8-13.34-11.39-17.44" transform="translate(-442.14 -449.53)" style="fill:#004713"/><path d="M457.57,495.12c-.34-.72-1.87-3.39-4.42-4.11a7.37,7.37,0,0,0-6.13,1.15Z" transform="translate(-442.14 -449.53)" style="fill:#004713"/><path d="M451.82,496.3c2.38.68,4.9-.61,5.75-1.18l-10.55-3a7.74,7.74,0,0,0,4.8,4.15" transform="translate(-442.14 -449.53)" style="fill:#50b848"/><path d="M459.59,489.62c.12-1,.18-3.92-1.54-5.86a7,7,0,0,0-5.72-2.37Z" transform="translate(-442.14 -449.53)" style="fill:#004713"/><path d="M454.14,487.52a7.65,7.65,0,0,0,5.44,2.1l-7.26-8.24c0,1.48-.28,3.87,1.82,6.14" transform="translate(-442.14 -449.53)" style="fill:#50b848"/><path d="M467.44,516.73c-1.09-.4-5.17-1.14-7.77.68a9.47,9.47,0,0,0-3.65,6.67Z" transform="translate(-442.14 -449.53)" style="fill:#50b848"/><path d="M463.78,523.33a9.14,9.14,0,0,0,3.66-6.6L456,524.09c2,.58,5.14.95,7.75-.75" transform="translate(-442.14 -449.53)" style="fill:#004713"/><path d="M466.78,513c-.67-1.05-4.25-4.83-8.2-5.17a12.85,12.85,0,0,0-8.72,2.55Z" transform="translate(-442.14 -449.53)" style="fill:#50b848"/><path d="M457.63,515.46a12.64,12.64,0,0,0,9.15-2.46l-16.93-2.62a12.88,12.88,0,0,0,7.78,5.07" transform="translate(-442.14 -449.53)" style="fill:#004713"/><path d="M495.91,480.23c-.44-1-2.61-4.77-6.08-6.09a11,11,0,0,0-9,.53Z" transform="translate(-442.14 -449.53)" style="fill:#50b848"/><path d="M487,480.78c3.42,1.4,7.43.2,8.94-.55l-15.11-5.55a12.32,12.32,0,0,0,6.18,6.11" transform="translate(-442.14 -449.53)" style="fill:#004713"/><path d="M476.13,522.12a8.42,8.42,0,0,0-1.76-5.9,8.14,8.14,0,0,0-5.73-2.67Z" transform="translate(-442.14 -449.53)" style="fill:#50b848"/><path d="M470.53,519.6a7.62,7.62,0,0,0,5.6,2.52l-7.5-8.57a8.61,8.61,0,0,0,1.89,6.05" transform="translate(-442.14 -449.53)" style="fill:#004713"/><path d="M477,511.47a8.54,8.54,0,0,0-4.09-4.6,8.25,8.25,0,0,0-6.31,0Z" transform="translate(-442.14 -449.53)" style="fill:#50b848"/><path d="M470.6,511.42a7.45,7.45,0,0,0,6.41.05l-10.41-4.6a8.61,8.61,0,0,0,4,4.55" transform="translate(-442.14 -449.53)" style="fill:#004713"/><path d="M466.35,502.22a8.5,8.5,0,0,0-5.54-3.25,8,8,0,0,0-6.18,2.56Z" transform="translate(-442.14 -449.53)" style="fill:#004713"/><path d="M460.53,504.8c2.69.15,5.1-1.85,5.82-2.59l-11.72-.69a8.59,8.59,0,0,0,5.9,3.28" transform="translate(-442.14 -449.53)" style="fill:#50b848"/><path d="M503.12,468.25c.6-1,2.18-4.2,1.2-7.36a9.28,9.28,0,0,0-5.41-5.61Z" transform="translate(-442.14 -449.53)" style="fill:#004713"/><path d="M497.91,463.08c1,3,4.09,4.71,5.2,5.17l-4.21-13a10,10,0,0,0-1,7.8" transform="translate(-442.14 -449.53)" style="fill:#50b848"/><path d="M515.13,462.19c.68-.9,2.49-3.72,1.9-6.79a8.81,8.81,0,0,0-4.48-5.87Z" transform="translate(-442.14 -449.53)" style="fill:#50b848"/><path d="M510.74,456.7c.72,3.22,3.6,5,4.39,5.5l-2.57-12.66a8.91,8.91,0,0,0-1.81,7.16" transform="translate(-442.14 -449.53)" style="fill:#004713"/><path d="M516.3,477.34c.88-.69,3.2-3.37,3.05-6.35-.13-2.77-2.52-5.19-3.83-6.09Z" transform="translate(-442.14 -449.53)" style="fill:#50b848"/><path d="M512.63,471.46c.28,3.14,2.93,5.26,3.67,5.88l-.77-12.44c-1.13,1.09-3.18,3.37-2.89,6.57" transform="translate(-442.14 -449.53)" style="fill:#004713"/><path d="M520.6,485.21a7.85,7.85,0,0,0,4.39-5.28c.55-2.66-1.06-5.53-2.06-6.71Z" transform="translate(-442.14 -449.53)" style="fill:#50b848"/><path d="M518.64,478.74c-.49,2.85,1.43,5.7,2,6.46l2.33-12a8.16,8.16,0,0,0-4.3,5.52" transform="translate(-442.14 -449.53)" style="fill:#004713"/><path d="M532.2,500.4a8,8,0,0,0,6.63-2.4c1.85-2.06,1.9-5.47,1.62-7Z" transform="translate(-442.14 -449.53)" style="fill:#50b848"/><path d="M533.76,493.63c-1.86,2.29-1.64,5.82-1.56,6.77l8.25-9.42a7.74,7.74,0,0,0-6.69,2.65" transform="translate(-442.14 -449.53)" style="fill:#004713"/><path d="M555.32,493.56a9.34,9.34,0,0,0,6.85-2.59c2-2,2.25-5.56,2.08-7.13Z" transform="translate(-442.14 -449.53)" style="fill:#50b848"/><path d="M557.22,486.6c-2.11,2.38-2,6-1.9,7l8.93-9.71a9.31,9.31,0,0,0-7,2.76" transform="translate(-442.14 -449.53)" style="fill:#004713"/><path d="M535.57,481.55c1-.24,4.14-1.39,5.44-4a8.74,8.74,0,0,0,0-6.92Z" transform="translate(-442.14 -449.53)" style="fill:#50b848"/><path d="M535.47,474.88c-1.29,2.69-.2,5.8.1,6.66L541,470.6a8.43,8.43,0,0,0-5.52,4.28" transform="translate(-442.14 -449.53)" style="fill:#004713"/><path d="M532.93,469.86c1.06-.13,4.32-.95,5.94-3.47s1.21-5.48.83-7Z" transform="translate(-442.14 -449.53)" style="fill:#50b848"/><path d="M533.63,463.08c-1.62,2.57-.91,5.88-.7,6.78l6.77-10.45a8.6,8.6,0,0,0-6.07,3.68" transform="translate(-442.14 -449.53)" style="fill:#004713"/><path d="M544.41,475.37a7.43,7.43,0,0,0,5.64-1.25,7.86,7.86,0,0,0,2.38-5.4Z" transform="translate(-442.14 -449.53)" style="fill:#50b848"/><path d="M546.63,470.1c-1.93,1.65-2.17,4.49-2.23,5.27l8-6.65a7.15,7.15,0,0,0-5.79,1.38" transform="translate(-442.14 -449.53)" style="fill:#004713"/><path d="M555,482.56A7.37,7.37,0,0,0,560.1,479a8,8,0,0,0,.21-6.3Z" transform="translate(-442.14 -449.53)" style="fill:#50b848"/><path d="M555.13,476.43a8.14,8.14,0,0,0-.12,6.12l5.3-9.86a7.8,7.8,0,0,0-5.18,3.74" transform="translate(-442.14 -449.53)" style="fill:#004713"/><path d="M547.31,496.15c.95-.23,3.88-1,5.18-3.75a8.29,8.29,0,0,0,.11-6.48Z" transform="translate(-442.14 -449.53)" style="fill:#50b848"/><path d="M547.33,489.86c-1.24,2.51-.37,5.29,0,6.3l5.29-10.24a8,8,0,0,0-5.27,3.93" transform="translate(-442.14 -449.53)" style="fill:#004713"/><path d="M564.28,491.18a6.75,6.75,0,0,0,5.66-.38,7.38,7.38,0,0,0,3.17-4.8Z" transform="translate(-442.14 -449.53)" style="fill:#50b848"/><path d="M567.29,486.48a7.46,7.46,0,0,0-3,4.71L573.1,486a7.15,7.15,0,0,0-5.81.47" transform="translate(-442.14 -449.53)" style="fill:#004713"/><path d="M560.24,500.11a7.29,7.29,0,0,0,5.76,1.15c2.67-.72,3.69-2.77,4.47-3.95Z" transform="translate(-442.14 -449.53)" style="fill:#50b848"/><path d="M564.53,496.21a7.71,7.71,0,0,0-4.28,3.9l10.23-2.79a7.4,7.4,0,0,0-5.95-1.1" transform="translate(-442.14 -449.53)" style="fill:#004713"/><path d="M569.18,502.09a8.82,8.82,0,0,0,6.36,3,7.9,7.9,0,0,0,6.33-3.3Z" transform="translate(-442.14 -449.53)" style="fill:#004713"/><path d="M575.27,498.76c-3.07.13-5.3,2.44-6.09,3.32l12.68-.26a8.88,8.88,0,0,0-6.59-3.06" transform="translate(-442.14 -449.53)" style="fill:#50b848"/><path d="M559.65,501.72a7.53,7.53,0,0,0,1.94,5.66c1.93,1.92,4.37,1.83,5.67,1.84Z" transform="translate(-442.14 -449.53)" style="fill:#004713"/><path d="M565.27,503.52c-1.86-1.79-4.63-1.82-5.62-1.8l7.61,7.5a7.4,7.4,0,0,0-2-5.7" transform="translate(-442.14 -449.53)" style="fill:#50b848"/><path d="M540.41,511.19a7.28,7.28,0,0,0,4.52-3.92,7.45,7.45,0,0,0-.34-5.92Z" transform="translate(-442.14 -449.53)" style="fill:#50b848"/><path d="M540,505.25c-1,2.4,0,5,.4,5.94l4.18-9.83a7.24,7.24,0,0,0-4.59,3.9" transform="translate(-442.14 -449.53)" style="fill:#004713"/><path d="M554,515.07a7.51,7.51,0,0,0-.74-5.92,7.78,7.78,0,0,0-5.17-3Z" transform="translate(-442.14 -449.53)" style="fill:#50b848"/><path d="M549,512.32c1.4,1.93,4,2.57,5,2.74l-5.9-8.89a7.44,7.44,0,0,0,.9,6.15" transform="translate(-442.14 -449.53)" style="fill:#004713"/><path d="M543,470.06a8.68,8.68,0,0,0,5.5-3.83c1.36-2.45.77-5.48.3-6.94Z" transform="translate(-442.14 -449.53)" style="fill:#50b848"/><path d="M543.18,463.36c-1.4,2.65-.48,5.76-.16,6.7l5.79-10.76a8.38,8.38,0,0,0-5.64,4.06" transform="translate(-442.14 -449.53)" style="fill:#004713"/><path d="M492.64,461.14a7.65,7.65,0,0,0,.51-5.74,7.33,7.33,0,0,0-4.58-4.13Z" transform="translate(-442.14 -449.53)" style="fill:#004713"/><path d="M488.26,457.45c1,2.13,3.41,3.31,4.37,3.68l-4.07-9.87a7.26,7.26,0,0,0-.31,6.19" transform="translate(-442.14 -449.53)" style="fill:#50b848"/><path d="M509.64,471.62A7.86,7.86,0,0,0,511.8,466a7.61,7.61,0,0,0-3.46-5.44Z" transform="translate(-442.14 -449.53)" style="fill:#004713"/><path d="M506.24,466.71c.35,2.41,2.54,4.27,3.41,4.91l-1.31-11a7.51,7.51,0,0,0-2.1,6.12" transform="translate(-442.14 -449.53)" style="fill:#50b848"/><path d="M521.5,468.47a7.61,7.61,0,0,0,3.25-4.71,7.37,7.37,0,0,0-1.9-5.86Z" transform="translate(-442.14 -449.53)" style="fill:#50b848"/><path d="M519.52,463.12c-.23,2.31,1.33,4.56,2,5.36l1.35-10.57a7.28,7.28,0,0,0-3.32,5.21" transform="translate(-442.14 -449.53)" style="fill:#004713"/><path d="M525.84,473.36a6.45,6.45,0,0,0,3.39-3.32,6,6,0,0,0-.65-5.14Z" transform="translate(-442.14 -449.53)" style="fill:#50b848"/><path d="M525.05,468.75a6.8,6.8,0,0,0,.79,4.61l2.74-8.46a6,6,0,0,0-3.53,3.85" transform="translate(-442.14 -449.53)" style="fill:#004713"/><path d="M528.58,485a6.94,6.94,0,0,0,3.77-3.58,6.62,6.62,0,0,0-.68-5.66Z" transform="translate(-442.14 -449.53)" style="fill:#50b848"/><path d="M527.71,480a7.28,7.28,0,0,0,.87,5l3.08-9.24a6.64,6.64,0,0,0-4,4.23" transform="translate(-442.14 -449.53)" style="fill:#004713"/><path d="M493.69,473.21a8.11,8.11,0,0,0-8.41-9.84Z" transform="translate(-442.14 -449.53)" style="fill:#004713"/><path d="M487,470.3c1.56,1.73,3.46,2.71,6.67,2.91l-8.41-9.84c-.18,1.41-.22,4.77,1.74,6.93" transform="translate(-442.14 -449.53)" style="fill:#50b848"/><path d="M502,494.36a8.78,8.78,0,0,0,.58-7,8.1,8.1,0,0,0-5.55-4.53Z" transform="translate(-442.14 -449.53)" style="fill:#004713"/><path d="M496.57,489.65a9,9,0,0,0,5.39,4.71l-5-11.57c-.56,1.23-1.6,4.32-.43,6.86" transform="translate(-442.14 -449.53)" style="fill:#50b848"/><path d="M528.6,462.61a7.85,7.85,0,0,0,4.67-4.19,8.18,8.18,0,0,0-.85-6.52Z" transform="translate(-442.14 -449.53)" style="fill:#004713"/><path d="M527.69,456.14c-.75,2-.37,3.89.9,6.47l3.82-10.71a7.83,7.83,0,0,0-4.72,4.24" transform="translate(-442.14 -449.53)" style="fill:#50b848"/><path d="M509.8,487c1.41-2.29,2.31-5,1.75-7.15a8.75,8.75,0,0,0-5.32-5.71Z" transform="translate(-442.14 -449.53)" style="fill:#004713"/><path d="M504.61,481.73A8.85,8.85,0,0,0,509.8,487l-3.56-12.86c-1.14,1.63-2.47,4.76-1.62,7.6" transform="translate(-442.14 -449.53)" style="fill:#50b848"/><path d="M536.61,488.06a11.42,11.42,0,0,0,8.5.13c3.81-1.76,5-5.62,5.57-7.13Z" transform="translate(-442.14 -449.53)" style="fill:#50b848"/><path d="M541.67,481.2c-2.46,1.29-4.14,3.89-5.06,6.87l14.06-7c-2.07-.81-5.71-1.6-9,.13" transform="translate(-442.14 -449.53)" style="fill:#004713"/><path d="M546.55,504.58a11.75,11.75,0,0,0,8.36-.65c3.55-2,4.43-5.63,4.83-7.16Z" transform="translate(-442.14 -449.53)" style="fill:#50b848"/><path d="M550.85,497.7a10.19,10.19,0,0,0-4.3,6.88l13.19-7.8c-2.11-.57-5.92-.92-8.88.92" transform="translate(-442.14 -449.53)" style="fill:#004713"/><path d="M565.87,520.09a10.24,10.24,0,0,0-1-8c-2.07-3.08-5.64-3.9-7.14-4.18Z" transform="translate(-442.14 -449.53)" style="fill:#50b848"/><path d="M559,516.37c1.45,2,4,3.14,6.88,3.72l-8.12-12.22a10,10,0,0,0,1.24,8.51" transform="translate(-442.14 -449.53)" style="fill:#004713"/><path d="M500.38,479.13a7.67,7.67,0,0,0-4.12-11.59Z" transform="translate(-442.14 -449.53)" style="fill:#004713"/><path d="M495.39,474.22c.8,2.18,2.2,3.63,5,4.91l-4.12-11.59c-.64,1.19-1.82,4.07-.86,6.68" transform="translate(-442.14 -449.53)" style="fill:#50b848"/><path d="M469.72,486.66c.09-.95.18-3.93-1.58-5.74a6.75,6.75,0,0,0-5.71-2Z" transform="translate(-442.14 -449.53)" style="fill:#50b848"/><path d="M464.43,484.88a7.17,7.17,0,0,0,5.29,1.78l-7.29-7.7a7.24,7.24,0,0,0,2,5.92" transform="translate(-442.14 -449.53)" style="fill:#004713"/><path d="M481.74,480.69a7.34,7.34,0,0,0-10.62-5Z" transform="translate(-442.14 -449.53)" style="fill:#004713"/><path d="M475.49,481c2.3,1,5.28.14,6.24-.31l-10.62-5c.43,1.18,1.49,4,4.38,5.28" transform="translate(-442.14 -449.53)" style="fill:#50b848"/><path d="M483.66,470.5a10.18,10.18,0,0,0-3.19-7,7.49,7.49,0,0,0-6.5-1.72Z" transform="translate(-442.14 -449.53)" style="fill:#50b848"/><path d="M476.82,468.28a9.43,9.43,0,0,0,6.84,2.22L474,461.8a9.34,9.34,0,0,0,2.85,6.48" transform="translate(-442.14 -449.53)" style="fill:#004713"/><path d="M484,487.81c-.47-.88-2-3.68-4.71-4.39a8,8,0,0,0-6.59,1.2Z" transform="translate(-442.14 -449.53)" style="fill:#004713"/><path d="M477.94,489.11a8.34,8.34,0,0,0,6-1.31l-11.29-3.18a8.32,8.32,0,0,0,5.25,4.49" transform="translate(-442.14 -449.53)" style="fill:#50b848"/><path d="M494.69,492.27c-.14-.9-1-3.81-2.92-5a6.77,6.77,0,0,0-5.84-.37Z" transform="translate(-442.14 -449.53)" style="fill:#004713"/><path d="M489.22,492.12a6.94,6.94,0,0,0,5.47.14l-8.76-5.39c.28,1.05.88,3.9,3.29,5.25" transform="translate(-442.14 -449.53)" style="fill:#50b848"/><path d="M472.27,502a12.44,12.44,0,0,0-.89-8.11,11.27,11.27,0,0,0-7.76-5.5Z" transform="translate(-442.14 -449.53)" style="fill:#50b848"/><path d="M464.91,497.11a11.66,11.66,0,0,0,7.36,4.9l-8.65-13.61a12.24,12.24,0,0,0,1.29,8.72" transform="translate(-442.14 -449.53)" style="fill:#004713"/><path d="M490,500.36c-.19-1.53-1.6-5.4-4.09-7.3A11.6,11.6,0,0,0,476.4,491Z" transform="translate(-442.14 -449.53)" style="fill:#50b848"/><path d="M481,498.71a12.1,12.1,0,0,0,9,1.65L476.4,491a12.39,12.39,0,0,0,4.61,7.7" transform="translate(-442.14 -449.53)" style="fill:#004713"/><path d="M520.19,511.6c-1.09,2.61-.9,4.88.46,5s3.28-2,4.29-4.56.73-4.59-.54-4.71-3.14,1.77-4.2,4.29" transform="translate(-442.14 -449.53)" style="fill:#f36f21"/><path d="M513.87,492.72c-1.26,2.09-1.45,4-.37,4.29s2.94-1.27,4.14-3.35,1.26-3.82.25-4.08-2.79,1.12-4,3.14" transform="translate(-442.14 -449.53)" style="fill:#f36f21"/><path d="M501.6,512.23c1.41-.52.85-2.76-1.2-4.95s-4.63-3.37-6-2.86-.9,2.58,1,4.71,4.74,3.61,6.16,3.09" transform="translate(-442.14 -449.53)" style="fill:#f36f21"/><path d="M506,509.14c-5-6.94-6.05-9.32-12.53-14.82,1.48,2.74,25.14,34.14,3.09,17.73,0,0-12.68-8.78-29.27-7.87,0,0,32.3,3.42,38,25.16a10.77,10.77,0,0,1,.1,1.68,17.86,17.86,0,0,1-2.1,7,20.7,20.7,0,0,1-2.46,3.42c-2,2.14-5.64,3-7,3.6,1.56,1.12,6.85.18,9.23,0l8.81.37c.24,0,1.12,0,1.56,0l1.4-4s3.93-.8,5.44-1.07,3.2-.45,3.2-.45l-2.52,5.62c2.78.37,11.17,1.3,12.71.35-1.75-.72-6.82-1.26-8.89-4.21-.29-.29-2.37-7.45-2.29-10,0-.09,0-.32,0-.36C526.32,505.37,553,496,553,496c-17.24,3.9-26.54,17.43-26.54,17.43-17.48,21.84-5.36-10.29-1.74-14.08a28.63,28.63,0,0,0-8.9,12.48c2-21.12,19.84-23.14,19.84-23.14-9.2-.26-16.28,7.43-16.28,7.43-15.1,16.29-9.46-7-3-10.38-.58.3-12.53,5.37-10.33,23.46" transform="translate(-442.14 -449.53)" style="fill:#f36f21"/></svg>